<?xml version="1.0" encoding="UTF-8" standalone="no"?>
<svg
   xmlns:dc="http://purl.org/dc/elements/1.1/"
   xmlns:cc="http://creativecommons.org/ns#"
   xmlns:rdf="http://www.w3.org/1999/02/22-rdf-syntax-ns#"
   xmlns:svg="http://www.w3.org/2000/svg"
   xmlns="http://www.w3.org/2000/svg"
   xmlns:sodipodi="http://sodipodi.sourceforge.net/DTD/sodipodi-0.dtd"
   xmlns:inkscape="http://www.inkscape.org/namespaces/inkscape"
   version="1.1"
   id="Layer_1"
   x="0px"
   y="0px"
   viewBox="0 2 245 137.8125"
   xml:space="preserve"
   width="1280"
   height="720"
   sodipodi:docname="coding - Copy.svg"
   inkscape:version="1.0.1 (3bc2e813f5, 2020-09-07)"
   inkscape:export-filename="C:\Users\SunGl\Downloads\coding - Copy.png"
   inkscape:export-xdpi="96"
   inkscape:export-ydpi="96"><metadata
   id="metadata32"><rdf:RDF><cc:Work
       rdf:about=""><dc:format>image/svg+xml</dc:format><dc:type
         rdf:resource="http://purl.org/dc/dcmitype/StillImage" /><dc:title /></cc:Work></rdf:RDF></metadata><defs
   id="defs30" /><sodipodi:namedview
   pagecolor="#ffffff"
   bordercolor="#666666"
   borderopacity="1"
   objecttolerance="10"
   gridtolerance="10"
   guidetolerance="10"
   inkscape:pageopacity="0"
   inkscape:pageshadow="2"
   inkscape:window-width="1920"
   inkscape:window-height="986"
   id="namedview28"
   showgrid="false"
   inkscape:zoom="0.390625"
   inkscape:cx="-147.4388"
   inkscape:cy="173.44637"
   inkscape:window-x="-11"
   inkscape:window-y="-11"
   inkscape:window-maximized="1"
   inkscape:current-layer="Layer_1"
   inkscape:document-rotation="0" />
<style
   type="text/css"
   id="style2">
	.st0{fill:url(#SVGID_1_);}
	.st1{fill:url(#SVGID_2_);}
	.st2{fill:url(#SVGID_3_);}
</style>
<rect
   style="fill:#ffffff;stroke:#403b3b;stroke-width:0;stroke-linecap:square"
   id="rect20"
   width="245"
   height="137.8125"
   x="1.0658141e-14"
   y="2" /><g
   id="g25"
   transform="matrix(1.2242349,0,0,1.2242349,62.51249,6.097369)">
	
		<linearGradient
   id="SVGID_1_"
   gradientUnits="userSpaceOnUse"
   x1="76.756104"
   y1="90.666702"
   x2="76.756104"
   y2="19.858601"
   gradientTransform="matrix(1,0,0,-1,0,104)">
		<stop
   offset="0"
   style="stop-color:#00EFD1"
   id="stop4" />
		<stop
   offset="1"
   style="stop-color:#00ACEA"
   id="stop6" />
	</linearGradient>
	<path
   class="st0"
   d="M 88.2,50.9 69.7,31.3 c -1.1,-1.2 -3,-1.3 -4.2,-0.1 -1.2,1.1 -1.3,3 -0.1,4.2 L 81.9,53 65.3,70.5 c -1.1,1.2 -1.1,3.1 0.1,4.2 0.6,0.5 1.3,0.8 2.1,0.8 0.8,0 1.6,-0.3 2.2,-0.9 L 88.2,55 c 1.1,-1.1 1.1,-2.9 0,-4.1 z"
   id="path9"
   style="fill:url(#SVGID_1_)" />
	
		<linearGradient
   id="SVGID_2_"
   gradientUnits="userSpaceOnUse"
   x1="21.2633"
   y1="90.666702"
   x2="21.2633"
   y2="19.858601"
   gradientTransform="matrix(1,0,0,-1,0,104)">
		<stop
   offset="0"
   style="stop-color:#00EFD1"
   id="stop11" />
		<stop
   offset="1"
   style="stop-color:#00ACEA"
   id="stop13" />
	</linearGradient>
	<path
   class="st1"
   d="m 32.6,31.2 c -1.2,-1.1 -3.1,-1.1 -4.2,0.1 L 9.8,50.9 c -1.1,1.2 -1.1,3 0,4.1 l 18.5,19.6 c 0.6,0.6 1.4,0.9 2.2,0.9 0.7,0 1.5,-0.3 2.1,-0.8 1.2,-1.1 1.3,-3 0.1,-4.2 L 16.1,53 32.7,35.5 c 1.1,-1.2 1.1,-3.1 -0.1,-4.3 z"
   id="path16"
   style="fill:url(#SVGID_2_)" />
	
		<linearGradient
   id="SVGID_3_"
   gradientUnits="userSpaceOnUse"
   x1="49.0914"
   y1="90.666702"
   x2="49.0914"
   y2="19.858601"
   gradientTransform="matrix(1,0,0,-1,0,104)">
		<stop
   offset="0"
   style="stop-color:#00EFD1"
   id="stop18" />
		<stop
   offset="1"
   style="stop-color:#00ACEA"
   id="stop20" />
	</linearGradient>
	<path
   class="st2"
   d="m 53.9,21.2 c -1.6,-0.2 -3.2,0.9 -3.4,2.5 l -8.8,57.6 c -0.2,1.6 0.9,3.2 2.5,3.4 0.2,0 0.3,0 0.5,0 1.5,0 2.7,-1.1 3,-2.5 l 8.8,-57.6 c 0.1,-1.6 -1,-3.1 -2.6,-3.4 z"
   id="path23"
   style="fill:url(#SVGID_3_)" />
</g>
</svg>
